<svg id="Layer_1" data-name="Layer 1" xmlns="http://www.w3.org/2000/svg" viewBox="0 0 2517.7 600.4"><defs><style>.cls-1{fill:#fe8e46;}.cls-2{fill:#e56823;}.cls-3{fill:#463218;}.cls-4{fill:#fff;}.cls-5{fill:#7dac51;}.cls-6{fill:#fefe71;}</style></defs><title>plantbuddy-logo</title><path class="cls-1" d="M442.9,586.4H125.7a72.79,72.79,0,0,1-70-53.2L13.9,381.6H554.5L512.7,533.2A72.37,72.37,0,0,1,442.9,586.4Z"/><path class="cls-2" d="M203.1,533,161.3,381.4H13.9L55.7,533a72.43,72.43,0,0,0,70,53.2H273.1a72.32,72.32,0,0,1-70-53.2Z"/><path class="cls-3" d="M442.9,600.4H125.7a86.89,86.89,0,0,1-83.4-63.6L.5,385.2A14,14,0,0,1,2.9,373a14.31,14.31,0,0,1,11.2-5.6H554.7a14.15,14.15,0,0,1,13.6,17.8l-42,151.6a86.89,86.89,0,0,1-83.4,63.6ZM32.3,395.6l37,133.8a58.86,58.86,0,0,0,56.4,43H442.9a58.63,58.63,0,0,0,56.4-43l37-133.8Z"/><path class="cls-4" d="M447.94,530l14.72-48.83,19.15,5.78-14.73,48.82Z"/><path class="cls-3" d="M146.3,395.6a13.91,13.91,0,0,1-14-14v-194a14,14,0,1,1,28,0v194A14.17,14.17,0,0,1,146.3,395.6Z"/><path class="cls-5" d="M246.1,223.6a75.63,75.63,0,0,0-95.8,95.8,75.63,75.63,0,0,0,95.8-95.8Z"/><path class="cls-5" d="M46.5,223.6a75.63,75.63,0,0,1,95.8,95.8,75.63,75.63,0,0,1-95.8-95.8Z"/><path class="cls-3" d="M174.5,337.4a90.6,90.6,0,0,1-28.8-4.8,13.78,13.78,0,0,1-8.8-8.8A89.7,89.7,0,0,1,250.5,210.2a13.78,13.78,0,0,1,8.8,8.8,89.88,89.88,0,0,1-84.8,118.4Zm-13-29.4a61.84,61.84,0,0,0,73.2-73.2A61.84,61.84,0,0,0,161.5,308Z"/><path class="cls-3" d="M118.1,337.4A89.88,89.88,0,0,1,33.3,219a13.78,13.78,0,0,1,8.8-8.8A89.7,89.7,0,0,1,155.7,323.8a13.78,13.78,0,0,1-8.8,8.8,90.6,90.6,0,0,1-28.8,4.8ZM57.9,235a61.84,61.84,0,0,0,73.2,73.2A61.84,61.84,0,0,0,57.9,235Z"/><path class="cls-1" d="M103.9,102.2a42.4,42.4,0,1,0,42.43-42.43A42.4,42.4,0,0,0,103.9,102.2v0Z"/><path class="cls-6" d="M123.5,36.8a22.8,22.8,0,1,0,45.6,0h0a22.8,22.8,0,1,0-45.6,0Z"/><path class="cls-6" d="M123.5,167.4a22.8,22.8,0,1,0,45.6,0h0a22.8,22.8,0,1,0-45.6,0Z"/><path class="cls-6" d="M188.7,102.2a22.8,22.8,0,1,0,22.8-22.8A22.8,22.8,0,0,0,188.7,102.2Z"/><path class="cls-6" d="M58.1,102.2A22.8,22.8,0,1,0,80.9,79.4,22.8,22.8,0,0,0,58.1,102.2Z"/><path class="cls-6" d="M83.93,164.33a22.8,22.8,0,0,0,32.26-32.23v0a22.8,22.8,0,0,0-32.26,32.23Z"/><path class="cls-6" d="M171.52,65.34a22.8,22.8,0,0,0,41.6-18.67h0a22.8,22.8,0,1,0-41.6,18.67Z"/><path class="cls-6" d="M84,72.11a22.8,22.8,0,0,0,32.26-32.23v0A22.8,22.8,0,0,0,84,72.09Z"/><path class="cls-6" d="M176.15,164.38a22.8,22.8,0,0,0,32.26-32.23v0a22.8,22.8,0,0,0-32.26,32.23Z"/><path class="cls-3" d="M146.3,158.6a56.4,56.4,0,1,1,56.4-56.4A56.46,56.46,0,0,1,146.3,158.6Zm0-85A28.4,28.4,0,1,0,174.7,102,28.51,28.51,0,0,0,146.3,73.6Z"/><path class="cls-3" d="M146.3,158.6a56.4,56.4,0,1,1,56.4-56.4A56.46,56.46,0,0,1,146.3,158.6Zm0-85A28.4,28.4,0,1,0,174.7,102,28.51,28.51,0,0,0,146.3,73.6Z"/><path class="cls-3" d="M146.3,73.6a36.8,36.8,0,1,1,36.8-36.8A36.83,36.83,0,0,1,146.3,73.6Zm0-45.6a8.8,8.8,0,1,0,8.8,8.8A8.88,8.88,0,0,0,146.3,28Zm0,176.2a36.8,36.8,0,1,1,36.8-36.8C182.9,187.6,166.5,204.2,146.3,204.2Zm0-45.6a8.8,8.8,0,1,0,8.8,8.8A8.88,8.88,0,0,0,146.3,158.6ZM211.5,139a36.8,36.8,0,1,1,36.8-36.8A36.83,36.83,0,0,1,211.5,139Zm0-45.6a8.8,8.8,0,1,0,8.8,8.8A8.88,8.88,0,0,0,211.5,93.4ZM80.9,139a36.8,36.8,0,1,1,36.8-36.8A36.83,36.83,0,0,1,80.9,139Zm0-45.6a8.8,8.8,0,1,0,8.8,8.8A8.75,8.75,0,0,0,80.9,93.4Z"/><path class="cls-3" d="M100.1,185a36.8,36.8,0,1,1,26-10.8A36.65,36.65,0,0,1,100.1,185Zm0-45.6a8.63,8.63,0,0,0-6.2,2.6,8.77,8.77,0,1,0,12.4,0,9.54,9.54,0,0,0-6.2-2.6Zm92.2-46.6a36.49,36.49,0,0,1-13-2.4A36,36,0,0,1,158.9,71a36.85,36.85,0,0,1,46.8-49.4A36,36,0,0,1,226.1,41a36.7,36.7,0,0,1-18.4,48.6,38.67,38.67,0,0,1-15.4,3.2Zm0-45.6a7.84,7.84,0,0,0-3.6.8,8.35,8.35,0,0,0-4.6,4.8,8.91,8.91,0,0,0,.2,6.8,8.35,8.35,0,0,0,4.8,4.6,8.91,8.91,0,0,0,6.8-.2,8.35,8.35,0,0,0,4.6-4.8,8.91,8.91,0,0,0-.2-6.8,8.75,8.75,0,0,0-8-5.2ZM100.1,92.8a36.8,36.8,0,1,1,26-10.8A36.65,36.65,0,0,1,100.1,92.8Zm0-45.6a8.63,8.63,0,0,0-6.2,2.6,8.77,8.77,0,1,0,12.4,0,8.63,8.63,0,0,0-6.2-2.6ZM192.3,185a36.8,36.8,0,1,1,26-10.8A36.65,36.65,0,0,1,192.3,185Zm0-45.6a8.63,8.63,0,0,0-6.2,2.6,8.69,8.69,0,1,0,6.2-2.6Z"/><path class="cls-3" d="M422.3,395.6a13.91,13.91,0,0,1-14-14v-194a14,14,0,1,1,28,0v194A14,14,0,0,1,422.3,395.6Z"/><path class="cls-5" d="M522.1,223.6a75.63,75.63,0,0,0-95.8,95.8,75.63,75.63,0,0,0,95.8-95.8Z"/><path class="cls-5" d="M322.5,223.6a75.63,75.63,0,0,1,95.8,95.8,75.63,75.63,0,0,1-95.8-95.8Z"/><path class="cls-3" d="M450.5,337.4a90.6,90.6,0,0,1-28.8-4.8,13.78,13.78,0,0,1-8.8-8.8A89.7,89.7,0,0,1,526.5,210.2a13.78,13.78,0,0,1,8.8,8.8,89.88,89.88,0,0,1-84.8,118.4ZM437.7,308a61.84,61.84,0,0,0,73.2-73.2A61.84,61.84,0,0,0,437.7,308Z"/><path class="cls-3" d="M394.1,337.4A89.88,89.88,0,0,1,309.3,219a13.78,13.78,0,0,1,8.8-8.8A89.7,89.7,0,0,1,431.7,323.8a13.78,13.78,0,0,1-8.8,8.8,89.69,89.69,0,0,1-28.8,4.8ZM333.9,235a61.84,61.84,0,0,0,73.2,73.2A61.84,61.84,0,0,0,333.9,235Z"/><path class="cls-1" d="M379.9,102.2a42.4,42.4,0,1,0,84.8,0v0a42.4,42.4,0,1,0-84.8,0Z"/><path class="cls-6" d="M399.5,36.8a22.8,22.8,0,0,0,45.6.05V36.8a22.8,22.8,0,0,0-45.6,0Z"/><path class="cls-6" d="M399.5,167.4a22.8,22.8,0,0,0,45.6,0v0a22.8,22.8,0,0,0-45.6-.05Z"/><path class="cls-6" d="M464.9,102.2a22.8,22.8,0,0,0,45.6,0v0a22.8,22.8,0,0,0-45.6,0Z"/><path class="cls-6" d="M334.3,102.2a22.8,22.8,0,0,0,45.6,0v0a22.8,22.8,0,0,0-45.6,0Z"/><path class="cls-6" d="M360.12,164.3a22.8,22.8,0,1,0,0-32.24A22.8,22.8,0,0,0,360.12,164.3Z"/><path class="cls-6" d="M447.71,65.31a22.8,22.8,0,1,0,11.47-30.13A22.8,22.8,0,0,0,447.71,65.31Z"/><path class="cls-6" d="M360.17,72.08a22.8,22.8,0,1,0,32.24-32.24h0a22.8,22.8,0,0,0-32.24,32.24Z"/><path class="cls-6" d="M452.34,164.35a22.8,22.8,0,1,0,0-32.24A22.8,22.8,0,0,0,452.34,164.35Z"/><path class="cls-3" d="M422.3,158.6a56.4,56.4,0,1,1,56.4-56.4C478.9,133.2,453.5,158.6,422.3,158.6Zm0-85A28.4,28.4,0,1,0,450.7,102,28.51,28.51,0,0,0,422.3,73.6Z"/><path class="cls-3" d="M422.3,158.6a56.4,56.4,0,1,1,56.4-56.4C478.9,133.2,453.5,158.6,422.3,158.6Zm0-85A28.4,28.4,0,1,0,450.7,102,28.51,28.51,0,0,0,422.3,73.6Z"/><path class="cls-3" d="M422.3,73.6a36.8,36.8,0,1,1,36.8-36.8A36.83,36.83,0,0,1,422.3,73.6Zm0-45.6a8.8,8.8,0,1,0,8.8,8.8A8.75,8.75,0,0,0,422.3,28Zm0,176.2a36.8,36.8,0,1,1,36.8-36.8A36.83,36.83,0,0,1,422.3,204.2Zm0-45.6a8.8,8.8,0,1,0,8.8,8.8A8.75,8.75,0,0,0,422.3,158.6ZM487.7,139a36.8,36.8,0,1,1,36.8-36.8A36.83,36.83,0,0,1,487.7,139Zm0-45.6a8.8,8.8,0,1,0,8.8,8.8A8.88,8.88,0,0,0,487.7,93.4ZM357.1,139a36.8,36.8,0,1,1,36.8-36.8A36.83,36.83,0,0,1,357.1,139Zm0-45.6a8.8,8.8,0,1,0,8.8,8.8A8.88,8.88,0,0,0,357.1,93.4Z"/><path class="cls-3" d="M376.3,185a36.8,36.8,0,1,1,26-10.8A36.65,36.65,0,0,1,376.3,185Zm0-45.6a8.63,8.63,0,0,0-6.2,2.6,8.77,8.77,0,1,0,12.4,0A9.54,9.54,0,0,0,376.3,139.4Zm92.2-46.6a36.49,36.49,0,0,1-13-2.4A36,36,0,0,1,435.1,71a36.8,36.8,0,1,1,68-1.8,36,36,0,0,1-19.4,20.4,37.06,37.06,0,0,1-15.2,3.2Zm0-45.6a7.84,7.84,0,0,0-3.6.8,8.79,8.79,0,0,0-4.4,11.6,8.35,8.35,0,0,0,4.8,4.6,8.91,8.91,0,0,0,6.8-.2,8.35,8.35,0,0,0,4.6-4.8,8.91,8.91,0,0,0-.2-6.8,8.75,8.75,0,0,0-8-5.2ZM376.3,92.8a36.8,36.8,0,1,1,26-10.8A36.65,36.65,0,0,1,376.3,92.8Zm0-45.6a8.63,8.63,0,0,0-6.2,2.6,8.77,8.77,0,1,0,12.4,0A8.63,8.63,0,0,0,376.3,47.2ZM468.5,185a36.8,36.8,0,1,1,26-10.8A36.65,36.65,0,0,1,468.5,185Zm0-45.6a8.63,8.63,0,0,0-6.2,2.6,8.77,8.77,0,1,0,12.4,0A9.14,9.14,0,0,0,468.5,139.4Z"/><path class="cls-3" d="M284.3,461.6H32.3a14,14,0,0,1,0-28h252a14,14,0,1,1,0,28Z"/><path class="cls-3" d="M536.3,461.6H348.1a14,14,0,0,1,0-28H536.3a14,14,0,0,1,0,28Z"/><path class="cls-4" d="M788.28,116.38a86.72,86.72,0,0,1,0,173.43H752.69V412.1H701.57V167.5H679.34V116.38Zm35.58,86.7a35.58,35.58,0,0,0-35.58-35.58H752.69v71.17h35.59A35.59,35.59,0,0,0,823.86,203.08Z"/><path class="cls-4" d="M900.43,412.8V117.06h51.13V412.8Z"/><path class="cls-4" d="M1167.24,226.5V412.55h-51.12v-10a93,93,0,1,1,0-166.09v-10Zm-93,134.92a41.91,41.91,0,1,0-41.9-41.91,42,42,0,0,0,41.9,41.91Z"/><path class="cls-4" d="M1364.47,308.11V412.56h-51.13V308.11a30.61,30.61,0,1,0-61.22,0V412.55H1201V226.37h51.13v5.95a81.74,81.74,0,0,1,112.35,75.79Z"/><path class="cls-4" d="M1455.92,277.5v83.79h24.47v51.13h-25.56a50.09,50.09,0,0,1-50-50V277.5H1390V226.37h14.83V116.83h51.13V226.37h24.47V277.5Z"/><path class="cls-4" d="M1689.83,286.07a93,93,0,0,1-128.69,116.5v10H1510V116.81h51.13V236.47a93,93,0,0,1,128.69,49.6ZM1603,361.42a41.91,41.91,0,1,0-41.9-41.91,42,42,0,0,0,41.9,41.91Z"/><path class="cls-4" d="M1889.08,226.37V412.55H1838V406.6a81.73,81.73,0,0,1-112.34-75.79V226.37h51.12V330.81a30.62,30.62,0,0,0,61.23,0V226.37Z"/><path class="cls-4" d="M2104.87,116.81V412.55h-51.12v-10a93,93,0,1,1,0-166.09V116.81Zm-51.12,202.71a41.9,41.9,0,1,0-41.9,41.9A41.9,41.9,0,0,0,2053.75,319.52Z"/><path class="cls-4" d="M2320.47,116.81V412.55h-51.13v-10a93,93,0,1,1,0-166.09V116.81Zm-51.13,202.71a41.9,41.9,0,1,0-41.89,41.9A41.89,41.89,0,0,0,2269.34,319.52Z"/><path class="cls-4" d="M2517.7,226.37v228a81.74,81.74,0,1,1-163.48,0h51.13a30.61,30.61,0,0,0,61.22,0V406.6a81.74,81.74,0,0,1-112.35-75.79V226.37h51.13V330.81a30.61,30.61,0,0,0,61.22,0V226.37Z"/></svg>