<?xml version="1.0" standalone="no"?>
<!DOCTYPE svg PUBLIC "-//W3C//DTD SVG 20010904//EN"
 "http://www.w3.org/TR/2001/REC-SVG-20010904/DTD/svg10.dtd">
<svg version="1.0" xmlns="http://www.w3.org/2000/svg"
 width="640.000000pt" height="640.000000pt" viewBox="0 0 640.000000 640.000000"
 preserveAspectRatio="xMidYMid meet">

<g transform="translate(0.000000,640.000000) scale(0.100000,-0.100000)"
fill="#000000" stroke="none">
<path d="M3711 5489 c-72 -22 -165 -96 -235 -189 -126 -165 -265 -464 -367
-792 l-43 -136 -37 86 c-54 130 -104 225 -174 332 -147 224 -281 319 -452 320
-141 0 -280 -66 -410 -196 l-82 -81 -53 14 c-29 8 -96 14 -148 14 -163 0 -265
-39 -381 -149 -128 -120 -192 -299 -169 -474 11 -88 19 -112 104 -302 37 -82
76 -182 86 -223 22 -87 39 -117 81 -138 52 -28 101 -21 188 24 61 32 370 144
378 137 1 0 -35 -41 -79 -91 -471 -531 -547 -1283 -193 -1913 97 -173 253
-354 410 -477 114 -89 465 -320 511 -336 57 -20 841 -20 898 0 57 20 310 192
461 314 163 131 332 305 411 422 244 365 327 810 234 1255 -53 254 -184 517
-351 703 -28 32 -50 59 -48 61 6 5 287 -98 351 -128 32 -15 81 -43 109 -63
109 -74 162 -78 229 -14 32 30 39 45 44 91 14 105 46 210 122 387 108 254 125
309 131 430 18 323 -147 640 -397 761 -113 55 -183 72 -320 79 -89 4 -135 2
-200 -11 l-85 -18 -24 34 c-58 79 -198 205 -264 238 -74 36 -173 48 -236 29z
m184 -234 c48 -33 145 -135 145 -152 0 -4 -23 -23 -51 -42 -70 -47 -176 -165
-227 -250 -96 -162 -125 -344 -83 -511 11 -46 21 -87 21 -92 0 -4 -103 -8
-230 -8 -177 0 -230 3 -230 13 0 6 11 53 24 102 103 384 269 749 411 904 83
91 128 98 220 36z m774 -270 c91 -29 184 -92 232 -157 84 -116 132 -261 132
-404 0 -108 -13 -152 -118 -399 -73 -172 -115 -290 -115 -327 0 -11 -3 -18 -7
-16 -5 2 -51 24 -103 49 -52 26 -176 75 -275 109 -220 76 -257 94 -334 166
-148 137 -236 353 -210 516 20 124 103 260 214 349 33 27 63 49 67 49 12 0 79
-128 144 -274 62 -142 115 -289 154 -425 14 -47 31 -82 47 -97 51 -47 140 -20
162 49 9 28 6 50 -18 137 -52 185 -154 442 -241 608 -29 56 -36 78 -27 84 6 4
58 8 114 8 81 0 118 -5 182 -25z m-2184 -95 c116 -56 263 -275 380 -567 24
-59 41 -111 39 -115 -3 -5 -124 -8 -270 -8 l-264 0 0 68 c0 145 -56 267 -178
391 l-82 85 37 38 c52 53 105 88 166 109 68 24 121 24 172 -1z m-699 -243 c1
-1 -22 -51 -51 -112 -68 -141 -145 -354 -145 -401 0 -28 8 -44 34 -70 39 -39
72 -43 117 -17 34 20 47 45 95 184 44 127 140 329 156 329 20 0 114 -106 139
-157 15 -32 24 -72 27 -120 4 -65 1 -79 -27 -140 -40 -84 -90 -146 -146 -178
-24 -14 -108 -47 -187 -74 -78 -26 -167 -59 -197 -72 -30 -12 -56 -19 -58 -14
-9 26 -96 231 -134 315 -40 89 -43 101 -43 185 -1 77 3 98 25 146 66 139 198
217 344 203 27 -3 50 -6 51 -7z m2049 -684 c10 -14 36 -46 58 -70 l40 -43
-862 0 c-594 0 -861 3 -861 10 0 6 19 38 42 70 l42 60 762 0 762 0 17 -27z
m196 -362 c54 -45 169 -185 233 -283 90 -139 148 -279 187 -453 30 -129 37
-406 15 -535 -37 -213 -134 -449 -244 -596 -125 -165 -369 -378 -634 -551
l-103 -68 -390 0 -390 0 -230 155 c-192 129 -247 171 -335 260 -262 262 -410
601 -427 980 -16 382 121 746 389 1026 l90 94 902 0 901 0 36 -29z"/>
</g>
</svg>
